<svg xmlns="http://www.w3.org/2000/svg" width="158" height="72" viewBox="0 0 158 72">
  <g fill="none" fill-rule="evenodd">
    <rect width="158" height="72"/>
    <g transform="translate(0 21)">
      <polygon fill="#000000" points="38.86 6.47 38.86 14.286 46.489 14.286 46.489 6.47 51.109 6.47 51.109 26.731 46.489 26.731 46.489 18.282 38.86 18.282 38.86 26.731 34.239 26.731 34.239 6.47"/>
      <path fill="#000000" d="M60.4784253 27.0597974C56.1315207 27.0597974 52.7874207 24.2354338 52.7874207 19.487174 52.7874207 14.7375117 55.9490207 11.7013558 60.7507569 11.7013558 65.2801615 11.7013558 68.3197796 14.7964208 68.3197796 19.2463948 68.3197796 24.5949662 64.4608026 27.0597974 60.5077388 27.0597974L60.4784253 27.0597974zM60.5682569 23.7852C62.3937299 23.7852 63.5185162 22.0109143 63.5185162 19.3656156 63.5185162 17.2000052 62.6651159 14.9768883 60.5682569 14.9768883 58.3801479 14.9768883 57.5295843 17.2000052 57.5295843 19.3964727 57.5295843 21.8902909 58.5938526 23.7852 60.5379978 23.7852L60.5682569 23.7852zM77.5596231 27.0597974C73.2127186 27.0597974 69.8705097 24.2354338 69.8705097 19.487174 69.8705097 14.7375117 73.0311641 11.7013558 77.8343187 11.7013558 82.3637233 11.7013558 85.4033415 14.7964208 85.4033415 19.2463948 85.4033415 24.5949662 81.5415276 27.0597974 77.5898822 27.0597974L77.5596231 27.0597974zM77.6508731 23.7852C79.4758733 23.7852 80.6006597 22.0109143 80.6006597 19.3656156 80.6006597 17.2000052 79.7472593 14.9768883 77.6508731 14.9768883 75.4618185 14.9768883 74.6122006 17.2000052 74.6122006 19.3964727 74.6122006 21.8902909 75.6750504 23.7852 77.6215597 23.7852L77.6508731 23.7852zM87.0917976 15.3977143L87.0917976 21.4396364C87.0917976 23.5136104 87.5182613 24.9264935 88.3692977 25.7961039 89.1286112 26.5497662 90.3744339 27.0598442 91.8642203 27.0598442 93.1407748 27.0598442 94.2646156 26.8793766 94.8433203 26.668987L94.8116429 23.2120519C94.3875431 23.3036883 94.0830612 23.3331429 93.4452567 23.3331429 92.077925 23.3331429 91.6212021 22.521039 91.6212021 20.7472208L91.6212021 15.3977143 94.9355159 15.3977143 94.9355159 12.031013 91.6212021 12.031013 91.6212021 9.18794805 91.6037086 9.19776623 91.6037086 7.57683117C89.1139545 7.57683117 87.0951072 9.56711688 87.0951072 12.031013L87.0917976 12.031013 87.0917976 15.3977143zM134.416369 15.3977143L134.416369 21.4396364C134.416369 23.5136104 134.842832 24.9264935 135.693396 25.7961039 136.453182 26.5497662 137.698059 27.0598442 139.187846 27.0598442 140.464873 27.0598442 141.589659 26.8793766 142.168364 26.668987L142.136687 23.2120519C141.712114 23.3036883 141.407159 23.3331429 140.768882 23.3331429 139.402023 23.3331429 138.945773 22.521039 138.945773 20.7472208L138.945773 15.3977143 142.259141 15.3977143 142.259141 12.031013 138.945773 12.031013 138.945773 9.18794805 138.92828 9.19776623 138.92828 7.57683117C136.438998 7.57683117 134.419678 9.56711688 134.419678 12.031013L134.416369 12.031013 134.416369 15.3977143zM97.3663594 22.7611169C98.2173958 23.2721299 99.9795138 23.842987 101.349682 23.842987 102.7468 23.842987 103.324559 23.3927532 103.324559 22.6418961 103.324559 21.8592468 102.868309 21.4987792 101.166237 20.9274545 98.0656276 19.9376883 96.8789047 18.2522338 96.9101094 16.5396623 96.9101094 13.7742078 99.2802456 11.7002338 102.959559 11.7002338 104.692364 11.7002338 106.210991 12.121013 107.123018 12.5721818L106.333919 15.6981039C105.663964 15.3675584 104.356677 14.8864675 103.110382 14.8864675 101.986541 14.8864675 101.349682 15.3367013 101.349682 16.0581039 101.349682 16.779039 101.926496 17.1409091 103.750078 17.7734805 106.575991 18.7029351 107.731982 20.1448052 107.762241 22.2804935 107.762241 25.0459481 105.604391 27.0596104 101.349682 27.0596104 99.4031731 27.0596104 97.6703685 26.6084416 96.5455821 26.0076623L97.3663594 22.7611169zM123.511993 22.010961C123.511993 23.9343896 123.575348 25.4964156 123.63492 26.7302338L119.622284 26.7302338 119.409525 24.6557922 119.318275 24.6557922C118.740516 25.5576623 117.343398 27.0598442 114.668307 27.0598442 111.62727 27.0598442 109.438688 25.1967273 109.438688 20.656987L109.438688 12.031013 114.059343 12.031013 114.059343 19.9374545C114.059343 22.0708052 114.759557 23.3616623 116.400166 23.3616623 117.675775 23.3616623 118.435561 22.4906494 118.709311 21.7678442 118.832238 21.4985455 118.891811 21.1689351 118.891811 20.7771429L118.891811 12.031013 123.511993 12.031013 123.511993 22.010961z"/>
      <polygon fill="#000000" points="126.673 26.731 131.295 26.731 131.295 12.032 126.673 12.032"/>
      <path fill="#000000" d="M128.954701 10.1071636C127.404397 10.1071636 126.401119 9.02482597 126.401119 7.67225455 126.401119 6.28835844 127.434656 5.23734545 129.014274 5.23734545 130.59531 5.23734545 131.568801 6.28835844 131.598115 7.67225455 131.598115 9.02482597 130.59531 10.1071636 128.984015 10.1071636L128.954701 10.1071636zM148.080419 20.807439C148.23266 22.7322701 150.116287 23.6327377 152.275556 23.6327377 153.856119 23.6327377 155.133146 23.4237506 156.379442 23.0025039L156.988406 26.0989714C155.465996 26.7301403 153.611683 27.0298286 151.605601 27.0298286 146.560374 27.0298286 143.672996 24.1451532 143.672996 19.5147117 143.672996 15.7875429 146.04266 11.6690494 151.182447 11.6690494 155.984183 11.6690494 157.806819 15.3686338 157.806819 19.0051013 157.806819 19.7844779 157.716042 20.4778286 157.655996 20.837361L148.080419 20.807439zM153.521851 17.6810494C153.521851 16.6001143 153.035342 14.7052052 150.937065 14.7052052 148.962187 14.7052052 148.171669 16.4785558 148.050633 17.6810494L153.521851 17.6810494zM17.9282154 2.06186494C16.1760261 1.05573506 14.1444132.474592208 11.9747433.467579221 9.77906956.462436364 7.72239838 1.04451429 5.95129718 2.06186494 4.19816231 1.06508571 2.16702222.493761039.000189119188.499838961L.000189119188 12.308774C-.0371619205 25.3576052 10.6948792 35.888774 23.8788507 35.9261766L23.8788507 12.308774 23.8788507.499838961C21.7129632.493761039 19.6813503 1.06508571 17.9282154 2.06186494"/>
      <path fill="#FFFFFF" d="M17.0576525,13.2091481 C15.1721342,13.2044727 13.6478335,11.6887325 13.6530343,9.82374545 C13.6544527,9.47683636 13.7088245,9.14068052 13.8085848,8.82603117 C14.0733517,9.41418701 14.6671859,9.82655065 15.3612534,9.82842078 C16.3030669,9.83122597 17.0694724,9.07803117 17.0718364,8.14623896 C17.0737276,7.46036883 16.6605022,6.87127792 16.0661951,6.60571948 C16.3858066,6.50847273 16.7252755,6.45704416 17.0770372,6.45797922 C18.9616099,6.46358961 20.487329,7.97886234 20.4816554,9.84338182 C20.475509,11.7083688 18.9422252,13.215226 17.0576525,13.2091481 M6.81590283,13.1806286 C4.93133012,13.1754857 3.40561107,11.660213 3.41175744,9.79569351 C3.41648542,7.93070649 4.95166043,6.42338182 6.83623315,6.42899221 C7.18752204,6.42992727 7.52557259,6.48322597 7.84518402,6.58187532 C7.24993137,6.84416104 6.83434195,7.43044675 6.83197796,8.11678442 C6.82961397,9.04857662 7.59034591,9.80691429 8.53263227,9.80971948 C9.22622689,9.81112208 9.82195233,9.40296623 10.0914472,8.81574545 C10.1883708,9.13132987 10.2413241,9.46701818 10.2399057,9.81439481 C10.2337594,11.6789143 8.70142114,13.1867065 6.81590283,13.1806286 M17.0812924,4.76971948 C14.4085655,4.76223896 12.2095821,6.78478442 11.9712919,9.3693039 L11.9481248,9.33797922 L11.9259033,9.3693039 C11.7017971,6.78338182 9.51463365,4.74821299 6.84096113,4.74073247 C4.01268366,4.73231688 1.71441272,6.99377143 1.70684796,9.79008312 C1.69786479,12.5873299 3.98337019,14.8609403 6.81164765,14.8684208 C7.81728894,14.8716935 8.75390172,14.583226 9.54631112,14.0895117 L11.9268489,16.4570961 L14.3220434,14.1035377 C15.1125616,14.6009922 16.0458648,14.8941351 17.0519789,14.8974078 C19.8816748,14.9058234 22.1794729,12.6443688 22.1884561,9.84852468 C22.1960208,7.05174545 19.9109882,4.7772 17.0812924,4.76971948"/>
    </g>
  </g>
</svg>
