<svg xmlns="http://www.w3.org/2000/svg" width="110" height="72" viewBox="0 0 110 72">
  <g fill="#5E9F43" fill-rule="evenodd">
    <path d="M25.91691 31.214968c.816593-3.813567-1.382356-7.84258-6.199936-7.845382h-7.51293l-1.24223 5.84121h5.655893c1.152197 0 1.887866.94551 1.642994 2.097357-.24452 1.151847-1.37675 2.061624-2.52859 2.061624H9.99739l7.677578 14.192452h8.04016l-5.177708-9.53182c1.367293-.75564 4.529968-2.84704 5.37949-6.81545M1.499013 41.29363l-1.33226 6.2686H7.00777l2.98962-14.192453c-4.161084.14363-7.43586 2.9157-8.498377 7.923854m4.501592-11.72831c1.785223 0 3.23239-1.4391 3.23239-3.21417 0-1.77506-1.447167-3.21382-3.23239-3.21382-1.784873 0-3.232038 1.43876-3.232038 3.21382 0 1.77507 1.447165 3.21417 3.232038 3.21417m98.894555-6.19958h-6.46723l-3.327675 15.79305c-.981242 4.622458 2.32156 8.91175 10.05274 8.91175.06901 0 .193374-.01261.193374-.01261l1.31054-6.17436c-2.43997.367837-5.58233-.546494-5.01902-3.1914l.83901-3.94809h5.69688l1.17602-5.53328h-5.69688l1.24223-5.845062m-40.94137 15.32223c-.49465 2.328917-2.39898 3.945987-5.095736 3.945987-2.69675 0-3.76137-1.70816-3.2464-4.10399.514617-2.395826 2.24659-3.78589 4.946496-3.78589 2.676783 0 3.890287 1.61462 3.395637 3.943887zm-2.28162-9.395545c-1.28917 0-3.514047.323696-4.25602.728313l1.412833-6.655H52.37681l-3.25761 15.32328c-1.15255 5.42328 2.52019 9.396593 8.605573 9.396593 6.812293 0 11.325796-2.920956 12.610764-8.992676 1.239777-5.857324-3.077547-9.80051-8.663375-9.80051zm25.26952 9.395543c-.49465 2.328917-2.338726 3.945987-5.035828 3.945987-2.6964 0-3.853504-1.60446-3.338536-4.00029.51497-2.39583 2.3149-3.88959 5.01481-3.88959 2.67678 0 3.85455 1.61462 3.35955 3.943882zm-2.21436-9.395545c-6.1036 0-11.3836 3.600224-12.608663 9.396594-1.224713 5.79637 2.558026 9.396592 8.51344 9.396592 7.30239 0 11.578726-3.600223 12.78347-9.396592 1.204746-5.79637-2.584648-9.396593-8.688247-9.396593z"/>
    <path d="M40.84328 38.687962c-.49465 2.328917-2.339076 3.945987-5.035828 3.945987-2.69675 0-3.853503-1.60446-3.338535-4.00029.514618-2.39583 2.314905-3.88959 5.01481-3.88959 2.676783 0 3.854203 1.61462 3.359553 3.94388zm-2.214363-9.395542c-6.1036 0-11.38395 3.600223-12.608662 9.396593-1.224714 5.79637 2.558025 9.396592 8.51309 9.396592 7.302388 0 11.578725-3.600223 12.78347-9.396592 1.204746-5.79637-2.5843-9.396593-8.687898-9.396593zm69.734745-4.834745h-.321592v.566115h.314236c.244872 0 .359426-.09949.359426-.283408 0-.12226-.053598-.282707-.35207-.282707zm.772803 1.453822h-.305828l-.520573-.673312h-.267994v.673312h-.267643v-1.68363h.596942c.45926 0 .62742.260286.62742.505158 0 .260287-.17586.436147-.40567.48204l.54334.696432zm-.788217.42879c.68102 0 1.240128-.558758 1.240128-1.247835 0-.68102-.559108-1.247134-1.240128-1.247134-.68102 0-1.25519.566115-1.25519 1.247134 0 .689077.57417 1.247835 1.25519 1.247835zm0-2.747548c.818695 0 1.485.68101 1.485 1.49971 0 .82675-.666305 1.4927-1.485 1.4927-.8264 0-1.500063-.66596-1.500063-1.49271 0-.818697.673662-1.499716 1.500063-1.499716z"/>
  </g>
</svg>
